<svg xmlns="http://www.w3.org/2000/svg" viewBox="0 0 349.9 253"><defs><style>.cls-1{isolation:isolate;}.cls-2{fill:#fff;}.cls-3{fill:#202020;}.cls-4{fill:#dfdfdf;}.cls-5{fill:#9f9f9f;}.cls-6{fill:gray;}.cls-7{fill:#404040;}.cls-8{fill:none;stroke:#fff;stroke-miterlimit:10;}</style></defs><title>Risorsa 1pie1</title><g id="Livello_2" data-name="Livello 2"><g id="Livello_1-2" data-name="Livello 1"><g id="Simbolo_senza_nome" data-name="Simbolo senza nome"><g class="cls-1"><polygon class="cls-2" points="174.45 113.76 174.45 139.74 87.31 64.27 87.31 38.29 174.45 113.76"/><path class="cls-3" d="M87.31,38.29l87.14,75.47H0C.18,81.52,35.24,53.38,87.31,38.29Z"/><rect class="cls-3" y="113.76" width="174.45" height="25.98"/><path class="cls-2" d="M175,26.54c31.63,0,61.29,4.19,86.89,11.54l-87.39,75.69L87.31,38.3C113.08,30.81,143,26.54,175,26.54Z"/><polygon class="cls-2" points="261.84 38.07 261.84 64.05 174.45 139.74 174.45 113.76 261.84 38.07"/><path class="cls-4" d="M261.84,38.07c52.48,15,87.89,43.29,88.06,75.69H174.45Z"/><rect class="cls-4" x="174.45" y="113.76" width="175.45" height="25.98"/></g><g class="cls-1"><polygon class="cls-5" points="174.45 113.76 174.45 139.74 86.87 215.58 86.87 189.6 174.45 113.76"/><path class="cls-5" d="M174.45,113.76,86.87,189.6C34.91,174.43,0,146.26,0,114Z"/><path class="cls-5" d="M86.87,189.6v26C34.91,200.41,0,172.24,0,140V114C0,146.26,34.91,174.44,86.87,189.6Z"/><path class="cls-6" d="M349.9,113.76v26c0,32.66-35.25,61-87.62,76.06v-26C314.65,174.71,349.9,146.42,349.9,113.76Z"/><path class="cls-6" d="M349.9,113.76c0,32.66-35.25,60.95-87.62,76.06l-87.83-76.06H349.9Z"/><polygon class="cls-6" points="262.28 189.82 262.28 215.8 174.45 139.74 174.45 113.76 262.28 189.82"/><path class="cls-7" d="M174.45,113.76l87.83,76.06c-25.7,7.42-55.52,11.66-87.33,11.66-32.12,0-62.22-4.32-88.08-11.88Z"/><path class="cls-7" d="M262.28,189.82v26c-25.7,7.42-55.52,11.66-87.33,11.66-32.12,0-62.22-4.32-88.08-11.88v-26c25.87,7.56,56,11.88,88.08,11.88C206.76,201.48,236.58,197.24,262.28,189.82Z"/></g></g><line class="cls-8" x1="174.45" y1="253" x2="174.45" y2="202"/><line class="cls-8" x1="174.45" y1="51" x2="174.45"/><line class="cls-8" x1="36.48" y1="90.53" x2="0.42" y2="54.47"/><line class="cls-8" x1="313.42" y1="90.53" x2="349.48" y2="54.47"/><line class="cls-8" x1="36.48" y1="166.47" x2="0.42" y2="202.53"/><line class="cls-8" x1="313.42" y1="166.47" x2="349.48" y2="202.53"/></g></g></svg>