<svg xmlns="http://www.w3.org/2000/svg" xmlns:xlink="http://www.w3.org/1999/xlink" viewBox="0 0 386.15 218.5"><defs><style>.cls-1,.cls-10{fill:none;}.cls-2{isolation:isolate;}.cls-3{clip-path:url(#clip-path);}.cls-4{fill:#202020;}.cls-5{fill:#fff;}.cls-6{fill:#dfdfdf;}.cls-7{fill:#9f9f9f;}.cls-8{fill:gray;}.cls-9{fill:#404040;}.cls-10{stroke:#fff;stroke-miterlimit:10;}</style><clipPath id="clip-path"><rect class="cls-1" x="36.25" y="5.46" width="349.9" height="200.58"/></clipPath></defs><title>Risorsa 1chart</title><g id="Livello_2" data-name="Livello 2"><g id="Livello_1-2" data-name="Livello 1"><g class="cls-2"><g class="cls-3"><path class="cls-4" d="M211,5.46V92.63L50.52,58.57C78.32,25.82,139.84,5.46,211,5.46"/><polygon class="cls-4" points="211 92.64 211 118.62 50.52 84.56 50.52 58.57 211 92.64"/><path class="cls-5" d="M211,5.46c51.43,0,95.17,9.74,129.56,28.85L211,92.63Z"/><polygon class="cls-5" points="340.56 34.31 340.56 60.29 211 118.62 211 92.64 340.56 34.31"/><path class="cls-6" d="M386.15,91.82v26c0,12.05-5.24,24.32-15.88,36.27v-26c10.65-12,15.88-24.22,15.88-36.27"/><path class="cls-6" d="M340.56,34.31c47.62,26.44,58.65,61.28,29.71,93.79L211,92.63Z"/><polygon class="cls-6" points="370.27 128.09 370.27 154.07 211 118.62 211 92.64 370.27 128.09"/><path class="cls-7" d="M36.25,119.09v-26c0,21.95,16.94,43.31,49.34,60.08v26C53.19,162.4,36.25,141,36.25,119.09"/><path class="cls-7" d="M50.52,58.57,211,92.64,85.59,153.19C36.15,127.6,22.72,91.32,50.52,58.57"/><polygon class="cls-7" points="211 92.64 211 118.62 85.59 179.17 85.59 153.19 211 92.64"/><path class="cls-8" d="M211,92.63l159.27,35.46c-13.94,15.65-33.36,27.23-61.78,36.82Z"/><path class="cls-8" d="M370.27,128.09v26c-13.94,15.66-33.36,27.23-61.78,36.82v-26c28.41-9.59,47.83-21.16,61.78-36.81"/><polygon class="cls-8" points="308.49 164.91 308.49 190.88 211 118.62 211 92.63 308.49 164.91"/><path class="cls-9" d="M308.49,164.91v26C278.33,201.06,244.31,206,210.6,206c-45.67,0-90.76-9.13-125-26.87v-26c34.25,17.74,79.34,26.87,125,26.87,33.7,0,67.72-5,97.89-15.15"/><path class="cls-9" d="M211,92.63l97.5,72.27c-30.17,10.17-64.19,15.15-97.89,15.15-45.67,0-90.76-9.14-125-26.87Z"/></g></g><line class="cls-10" y1="93" x2="76" y2="93"/><line class="cls-10" x1="196.5" y1="218.5" x2="196.5" y2="167.5"/><line class="cls-10" x1="359.5" y1="184.5" x2="324.5" y2="149.5"/><line class="cls-10" x1="373" y1="42" x2="343" y2="72"/><line class="cls-10" x1="256" x2="256" y2="32"/><line class="cls-10" x1="122.5" y1="4.5" x2="148.5" y2="30.5"/></g></g></svg>