<svg xmlns="http://www.w3.org/2000/svg" xmlns:xlink="http://www.w3.org/1999/xlink" viewBox="0 0 1089.52 838.77"><defs><style>.cls-1,.cls-2{fill:none;}.cls-2{stroke:#fff;stroke-miterlimit:10;}.cls-3{font-size:36px;font-family:Courier;}.cls-3,.cls-4,.cls-5{fill:#fff;}.cls-4,.cls-5{font-size:6px;}.cls-13,.cls-14,.cls-15,.cls-16,.cls-17,.cls-4{font-family:Courier-Bold, Courier;font-weight:700;}.cls-5{font-family:Courier-Oblique, Courier;font-style:oblique;}.cls-6{clip-path:url(#clip-path);}.cls-7{fill:#dbd5d5;}.cls-8{fill:#f4c4cb;}.cls-9{fill:#f0e1e4;}.cls-10{fill:#c198b9;}.cls-11{fill:#daded6;}.cls-12{fill:#e0d0ca;}.cls-13{font-size:12px;}.cls-13,.cls-14,.cls-15,.cls-16,.cls-17{fill:#1d1d1b;}.cls-14{font-size:10px;}.cls-15{font-size:11.38px;}.cls-16{font-size:9px;}.cls-17{font-size:10.95px;}</style><clipPath id="clip-path" transform="translate(-8.96 -5.49)"><rect class="cls-1" width="1111.81" height="847.29"/></clipPath></defs><title>Risorsa 2virgil-volume</title><g id="Livello_2" data-name="Livello 2"><g id="Livello_1-2" data-name="Livello 1"><rect class="cls-2" x="407.97" y="312.05" width="296.51" height="86.15"/><text class="cls-3" transform="translate(473.25 365.31)">“VOLUME”</text><text class="cls-4" transform="translate(19.35 721.12)">I. CLASSIFICATION: DIVERSE HIRING</text><text class="cls-5" transform="translate(19.35 728.32)">Elevating talented BIPOC in and outside of our industry.</text><text class="cls-4" transform="translate(19.35 742.72)">II. CLASSIFICATION: DONATION MODEL</text><text class="cls-5" transform="translate(19.35 749.92)">Leveraging the privilege of financial resources and time to uplift communities in need</text><text class="cls-4" transform="translate(19.35 764.32)">III. CLASSIFICATION: CORPORATE ADVOCACY</text><text class="cls-5" transform="translate(19.35 771.52)">Using my voice within the industry, Louis Vuitton, and Off-White to foster more inclusive environments.</text><text class="cls-4" transform="translate(19.35 785.92)">IV. CLASSIFICATION: LEADING BY EXAMPLE</text><text class="cls-5" transform="translate(19.35 793.12)">Working hard and acting with compassion so that the younger generation can see people that look like them in places of power.</text><text class="cls-4" transform="translate(19.35 807.52)">V. CLASSIFICATION: REPRESENTATION</text><text class="cls-5" transform="translate(19.35 814.72)">Driving initiatives that showcase BIPOC role models or use all Black collaborators.</text><text class="cls-4" transform="translate(19.35 829.12)">VI. CLASSIFICATION: PROMOTING BLACK TALENT</text><text class="cls-5" transform="translate(19.35 836.32)">Endorsing BIPOC artists and using my influence to promote their work.</text><g class="cls-6"><path class="cls-7" d="M22,728.27A5.23,5.23,0,1,1,16.74,723,5.23,5.23,0,0,1,22,728.27" transform="translate(-8.96 -5.49)"/><path class="cls-8" d="M22,750.93a5.23,5.23,0,1,1-5.22-5.23A5.23,5.23,0,0,1,22,750.93" transform="translate(-8.96 -5.49)"/><path class="cls-9" d="M22,773.59a5.23,5.23,0,1,1-5.22-5.23A5.23,5.23,0,0,1,22,773.59" transform="translate(-8.96 -5.49)"/><path class="cls-10" d="M22,794a5.23,5.23,0,1,1-5.22-5.23A5.23,5.23,0,0,1,22,794" transform="translate(-8.96 -5.49)"/><path class="cls-11" d="M22,814.36a5.23,5.23,0,1,1-5.22-5.23A5.23,5.23,0,0,1,22,814.36" transform="translate(-8.96 -5.49)"/><path class="cls-12" d="M22,834.75a5.23,5.23,0,1,1-5.22-5.23A5.23,5.23,0,0,1,22,834.75" transform="translate(-8.96 -5.49)"/><path class="cls-7" d="M655.88,501.94A77.86,77.86,0,1,1,578,424.08a77.86,77.86,0,0,1,77.86,77.86" transform="translate(-8.96 -5.49)"/></g><text class="cls-13" transform="translate(533.75 491.13)">OFF-WHITE™ </text><text class="cls-13" transform="translate(504.95 505.53)">INTERNSHIP PROGRAM</text><g class="cls-6"><path class="cls-9" d="M311.44,632.74a77.86,77.86,0,1,1-77.86-77.86,77.85,77.85,0,0,1,77.86,77.86" transform="translate(-8.96 -5.49)"/></g><text class="cls-13" transform="translate(192.91 607.53)">MENTORING </text><text class="cls-13" transform="translate(214.51 621.93)">AND </text><text class="cls-13" transform="translate(192.91 636.33)">LECTURING </text><text class="cls-13" transform="translate(189.31 650.73)">INITIATIVE</text><g class="cls-6"><path class="cls-11" d="M1098.48,164.34a77.86,77.86,0,1,1-77.86-77.86,77.86,77.86,0,0,1,77.86,77.86" transform="translate(-8.96 -5.49)"/></g><text class="cls-13" transform="translate(965.54 163.73)">PUBLIC DOMAIN</text><g class="cls-6"><path class="cls-8" d="M326.57,457.62a77.86,77.86,0,1,1-77.86-77.86,77.86,77.86,0,0,1,77.86,77.86" transform="translate(-8.96 -5.49)"/></g><text class="cls-13" transform="translate(186.44 441.17)">MERCEDES BENZ X </text><text class="cls-13" transform="translate(190.04 455.57)">VIRGIL ABLOH | </text><text class="cls-13" transform="translate(215.24 469.97)">PROJECT</text><text class="cls-13" transform="translate(197.24 484.37)">GELÄNDEWAGEN</text><g class="cls-6"><path class="cls-8" d="M192.49,340.29a77.87,77.87,0,1,1-77.86-77.86,77.86,77.86,0,0,1,77.86,77.86" transform="translate(-8.96 -5.49)"/></g><text class="cls-13" transform="translate(44.15 337.44)">CANARY VOTER TEES</text><g class="cls-6"><path class="cls-8" d="M335,255.17a77.86,77.86,0,1,1-77.86-77.86A77.86,77.86,0,0,1,335,255.17" transform="translate(-8.96 -5.49)"/></g><text class="cls-13" transform="translate(198.44 237.92)">BOYS AND GIRLS </text><text class="cls-13" transform="translate(234.44 252.32)">CLUB</text><text class="cls-13" transform="translate(184.03 266.72)">SKATEBOARD PROGRAM</text><g class="cls-6"><path class="cls-8" d="M193.18,159.08a77.86,77.86,0,1,1-77.86-77.86,77.86,77.86,0,0,1,77.86,77.86" transform="translate(-8.96 -5.49)"/></g><text class="cls-13" transform="translate(44.84 157.23)">FUTURE OF MUSEUMS </text><g class="cls-6"><path class="cls-8" d="M852.68,476.27a77.86,77.86,0,1,1-77.86-77.86,77.86,77.86,0,0,1,77.86,77.86" transform="translate(-8.96 -5.49)"/></g><text class="cls-13" transform="translate(708.25 460.21)">THE VIRGIL ABLOH </text><text class="cls-13" transform="translate(719.05 474.61)">“POST-MODERN”</text><text class="cls-13" transform="translate(708.25 489.01)">SCHOLARSHIP FUND</text><g class="cls-6"><path class="cls-11" d="M932.93,219.87A77.86,77.86,0,1,1,855.07,142a77.86,77.86,0,0,1,77.86,77.86" transform="translate(-8.96 -5.49)"/></g><text class="cls-13" transform="translate(828.1 203.81)">EVIAN </text><text class="cls-13" transform="translate(795.7 218.21)">SUSTAINABILITY </text><text class="cls-13" transform="translate(820.9 232.61)">PROJECT</text><g class="cls-6"><path class="cls-11" d="M797.82,94.82A77.86,77.86,0,1,1,720,17a77.86,77.86,0,0,1,77.86,77.86" transform="translate(-8.96 -5.49)"/></g><text class="cls-13" transform="translate(674.99 93.16)">IN THE BLK</text><g class="cls-6"><path class="cls-11" d="M952.79,67.64a55.51,55.51,0,1,1-55.5-55.5,55.5,55.5,0,0,1,55.5,55.5" transform="translate(-8.96 -5.49)"/></g><text class="cls-13" transform="translate(881.12 65.98)">XQ</text><g class="cls-6"><path class="cls-10" d="M869.17,765.34a77.86,77.86,0,1,1-77.86-77.86,77.86,77.86,0,0,1,77.86,77.86" transform="translate(-8.96 -5.49)"/></g><text class="cls-13" transform="translate(717.54 756.48)">FASHION OUR FUTURE </text><text class="cls-13" transform="translate(717.54 770.88)">CREATIVE DIRECTION</text><g class="cls-6"><path class="cls-10" d="M1044.16,733.5a77.86,77.86,0,1,1-77.85-77.86,77.85,77.85,0,0,1,77.85,77.86" transform="translate(-8.96 -5.49)"/></g><text class="cls-13" transform="translate(896.13 731.84)">VAA DATABASE LIST</text><g class="cls-6"><path class="cls-9" d="M164.68,517.84A77.86,77.86,0,1,1,86.82,440a77.86,77.86,0,0,1,77.86,77.86" transform="translate(-8.96 -5.49)"/></g><text class="cls-13" transform="translate(34.65 508.98)">VIRGIL ABLOH </text><text class="cls-13" transform="translate(27.45 523.38)">“OFFICE HOURS”</text><g class="cls-6"><path class="cls-10" d="M993.25,567.9A77.86,77.86,0,1,1,915.39,490a77.86,77.86,0,0,1,77.86,77.86" transform="translate(-8.96 -5.49)"/></g><text class="cls-13" transform="translate(866.82 566.24)">“FREE GAME”</text><g class="cls-6"><path class="cls-8" d="M660.78,214.28a77.86,77.86,0,1,1-77.86-77.86,77.86,77.86,0,0,1,77.86,77.86" transform="translate(-8.96 -5.49)"/></g><text class="cls-13" transform="translate(519.95 205.42)">I SUPPORT YOUNG </text><text class="cls-13" transform="translate(516.35 219.82)">BLACK BUSINESSES</text><g class="cls-6"><path class="cls-8" d="M818.66,340.29a43.85,43.85,0,1,1-43.84-43.85,43.84,43.84,0,0,1,43.84,43.85" transform="translate(-8.96 -5.49)"/></g><text class="cls-14" transform="translate(732.85 325.99)">HUGSNOSLUGS </text><text class="cls-14" transform="translate(723.85 337.99)">SNEAKER RAFFLE </text><text class="cls-14" transform="translate(741.85 349.99)">AND MORE</text><g class="cls-6"><path class="cls-8" d="M763.8,244.87A43.85,43.85,0,1,1,720,201a43.84,43.84,0,0,1,43.84,43.84" transform="translate(-8.96 -5.49)"/></g><text class="cls-14" transform="translate(680.39 231.21)">OFF-WHITE</text><text class="cls-13" transform="translate(734.4 231.21)">™</text><text class="cls-14" transform="translate(741.6 231.21)"> </text><text class="cls-14" transform="translate(695.99 243.21)">MASKS </text><text class="cls-14" transform="translate(689.99 255.21)">PROJECT</text><g class="cls-6"><path class="cls-12" d="M599.75,67.64a43.85,43.85,0,1,1-43.84-43.85,43.84,43.84,0,0,1,43.84,43.85" transform="translate(-8.96 -5.49)"/></g><text class="cls-14" transform="translate(507.94 53.34)">AHMAUD ARBERY </text><text class="cls-14" transform="translate(519.94 65.34)">SONG WITH </text><text class="cls-14" transform="translate(513.94 77.34)">LUPE FIASCO</text><g class="cls-6"><path class="cls-8" d="M396.4,159.08a43.85,43.85,0,1,1-43.85-43.85,43.85,43.85,0,0,1,43.85,43.85" transform="translate(-8.96 -5.49)"/></g><text class="cls-14" transform="translate(319.58 150.78)">DESIGNER </text><text class="cls-14" transform="translate(316.58 162.78)">YARD SALE</text><g class="cls-6"><path class="cls-8" d="M501.23,136.41a43.85,43.85,0,1,1-43.84-43.84,43.84,43.84,0,0,1,43.84,43.84" transform="translate(-8.96 -5.49)"/></g><text class="cls-14" transform="translate(427.42 128.12)">CLUB 51</text><text class="cls-14" transform="translate(406.42 140.12)">SNEAKER RAFFLE</text><g class="cls-6"><path class="cls-8" d="M396.4,355.64a43.85,43.85,0,1,1-43.85-43.85,43.84,43.84,0,0,1,43.85,43.85" transform="translate(-8.96 -5.49)"/></g><text class="cls-14" transform="translate(304.58 353.34)">MOCA FACEMASK</text><g class="cls-6"><path class="cls-8" d="M306.49,116.52a43.85,43.85,0,1,1-43.85-43.85,43.85,43.85,0,0,1,43.85,43.85" transform="translate(-8.96 -5.49)"/></g><text class="cls-14" transform="translate(235.68 114.22)">STUSSY</text><g class="cls-6"><path class="cls-8" d="M406.83,55.41A49.92,49.92,0,1,1,356.91,5.49a49.92,49.92,0,0,1,49.92,49.92" transform="translate(-8.96 -5.49)"/></g><text class="cls-15" transform="translate(337.7 46.72)">9EN</text><text class="cls-15" transform="translate(303.53 60.39)">Lagos Nigeria</text><g class="cls-6"><path class="cls-8" d="M451.88,255.17A43.85,43.85,0,1,1,408,211.32a43.85,43.85,0,0,1,43.84,43.85" transform="translate(-8.96 -5.49)"/></g><text class="cls-14" transform="translate(363.07 240.87)">DIRTY GHETTO </text><text class="cls-14" transform="translate(387.07 252.87)">KIDS </text><text class="cls-14" transform="translate(360.07 264.87)">COLLABORATION</text><g class="cls-6"><path class="cls-9" d="M415.77,597.65a43.85,43.85,0,1,1-43.85-43.84,43.85,43.85,0,0,1,43.85,43.84" transform="translate(-8.96 -5.49)"/></g><text class="cls-14" transform="translate(338.96 589.36)">SHANGHAI </text><text class="cls-14" transform="translate(326.96 601.36)">FASHION SHOW</text><g class="cls-6"><path class="cls-9" d="M451.88,490A43.85,43.85,0,1,1,408,446.2,43.84,43.84,0,0,1,451.88,490" transform="translate(-8.96 -5.49)"/></g><text class="cls-14" transform="translate(357.07 481.75)">LVMH DIVERSITY </text><text class="cls-14" transform="translate(384.07 493.75)">PANEL</text><g class="cls-6"><path class="cls-9" d="M529.77,617.16a43.85,43.85,0,1,1-43.85-43.85,43.84,43.84,0,0,1,43.85,43.85" transform="translate(-8.96 -5.49)"/></g><text class="cls-14" transform="translate(437.95 608.86)">LUCIEN CLARKE </text><text class="cls-14" transform="translate(437.95 620.86)">COLLABORATION</text><g class="cls-6"><path class="cls-9" d="M568.62,722.78a43.85,43.85,0,1,1-43.84-43.85,43.84,43.84,0,0,1,43.84,43.85" transform="translate(-8.96 -5.49)"/></g><text class="cls-16" transform="translate(472.61 709.36)">CLEVELAND CLINIC</text><text class="cls-16" transform="translate(513.12 720.16)">&amp;</text><text class="cls-16" transform="translate(478.01 730.96)">SUAY FACEMASKS</text><g class="cls-6"><path class="cls-9" d="M435.21,700.1a43.85,43.85,0,1,1-43.84-43.85,43.85,43.85,0,0,1,43.84,43.85" transform="translate(-8.96 -5.49)"/></g><text class="cls-14" transform="translate(358.4 685.8)">ACHIMOTA</text><text class="cls-14" transform="translate(367.4 697.8)">GHANA </text><text class="cls-14" transform="translate(352.4 709.8)">MENTORSHIP</text><g class="cls-6"><path class="cls-9" d="M122.74,655.64A43.85,43.85,0,1,1,78.9,611.79a43.84,43.84,0,0,1,43.84,43.85" transform="translate(-8.96 -5.49)"/></g><text class="cls-16" transform="translate(29.43 642.22)">FSF POST MODERN</text><text class="cls-16" transform="translate(42.93 653.02)">LECTURES &amp;</text><text class="cls-16" transform="translate(42.93 663.82)">MENTORSHIP</text><g class="cls-6"><path class="cls-9" d="M731,685.34a43.85,43.85,0,1,1-43.85-43.84A43.85,43.85,0,0,1,731,685.34" transform="translate(-8.96 -5.49)"/></g><text class="cls-14" transform="translate(645.22 677.05)">4WD VILLAGE</text><text class="cls-14" transform="translate(651.22 689.05)">(FREE)DGE</text><g class="cls-6"><path class="cls-9" d="M637,649a43.85,43.85,0,1,1-43.85-43.84A43.85,43.85,0,0,1,637,649" transform="translate(-8.96 -5.49)"/></g><text class="cls-14" transform="translate(575.15 622.67)">DSM</text><text class="cls-14" transform="translate(560.15 634.67)">FEARLESS </text><text class="cls-14" transform="translate(554.15 646.67)">INITIATIVE</text><text class="cls-14" transform="translate(551.15 658.67)"><tspan xml:space="preserve"> TO GET OUT </tspan></text><text class="cls-14" transform="translate(560.15 670.67)">THE VOTE</text><g class="cls-6"><path class="cls-10" d="M733.36,588.9a43.85,43.85,0,1,1-43.84-43.85,43.84,43.84,0,0,1,43.84,43.85" transform="translate(-8.96 -5.49)"/></g><text class="cls-14" transform="translate(644.55 580.6)">METALLIC INC </text><text class="cls-14" transform="translate(665.55 592.6)">PANEL</text><g class="cls-6"><path class="cls-10" d="M829.28,631.44c0,26.94-21.51,48.78-48,48.78s-48-21.84-48-48.78,21.5-48.78,48-48.78,48,21.84,48,48.78" transform="translate(-8.96 -5.49)"/></g><text class="cls-17" transform="translate(749.28 616.15) scale(1 1.02)">FREEDOM</text><text class="cls-17" transform="translate(742.71 629.5) scale(1 1.02)">SKATEPARK </text><text class="cls-17" transform="translate(755.85 642.85) scale(1 1.02)">GHANA</text><g class="cls-6"><path class="cls-10" d="M1088,613.08a43.85,43.85,0,1,1-43.85-43.85A43.84,43.84,0,0,1,1088,613.08" transform="translate(-8.96 -5.49)"/></g><text class="cls-14" transform="translate(1017.2 604.78)">RUBRIC </text><text class="cls-14" transform="translate(1008.2 616.78)">INITATIVE</text><g class="cls-6"><path class="cls-11" d="M1016.16,441.93a43.85,43.85,0,1,1-43.85-43.84,43.85,43.85,0,0,1,43.85,43.84" transform="translate(-8.96 -5.49)"/></g><text class="cls-14" transform="translate(951.35 421.64)">NIKE </text><text class="cls-14" transform="translate(933.35 433.64)">OFF-WHITE™ </text><text class="cls-14" transform="translate(930.35 445.64)">BLACK SKATE </text><text class="cls-14" transform="translate(942.35 457.64)">PROGRAM</text><g class="cls-6"><path class="cls-11" d="M1054,320.41a43.85,43.85,0,1,1-43.85-43.85A43.84,43.84,0,0,1,1054,320.41" transform="translate(-8.96 -5.49)"/></g><text class="cls-14" transform="translate(974.18 312.11)">THE BLACK </text><text class="cls-14" transform="translate(971.18 324.11)">CURRICULUM</text><g class="cls-6"><path class="cls-11" d="M942.76,356.92a43.85,43.85,0,1,1-43.85-43.84,43.85,43.85,0,0,1,43.85,43.84" transform="translate(-8.96 -5.49)"/></g><text class="cls-14" transform="translate(871.95 330.63)">“LEGAL </text><text class="cls-14" transform="translate(850.95 342.63)">ARCHITECTURE” </text><text class="cls-14" transform="translate(856.95 354.63)">HARVARD AND</text><text class="cls-14" transform="translate(865.95 366.63)">STANFORD </text><text class="cls-14" transform="translate(859.95 378.63)">CURRICULUM</text></g></g></svg>